<mxfile host="app.diagrams.net" modified="2023-01-08T04:32:48.106Z" agent="5.0 (Windows NT 10.0; Win64; x64) AppleWebKit/537.36 (KHTML, like Gecko) Chrome/108.0.0.0 Safari/537.36 Edg/108.0.1462.76" etag="KUcsJ70gt0Kr6DiSdJ8l" version="20.6.0" type="github">
  <diagram name="Page-1" id="58cdce13-f638-feb5-8d6f-7d28b1aa9fa0">
    <mxGraphModel dx="1391" dy="745" grid="1" gridSize="10" guides="1" tooltips="1" connect="1" arrows="1" fold="1" page="1" pageScale="1" pageWidth="1100" pageHeight="850" background="none" math="0" shadow="0">
      <root>
        <mxCell id="0" />
        <mxCell id="1" parent="0" />
        <mxCell id="NbqthPl_TaQw0YLE8Lvm-1" value="mysql" style="rounded=0;whiteSpace=wrap;html=1;" vertex="1" parent="1">
          <mxGeometry x="420" y="500" width="90" height="40" as="geometry" />
        </mxCell>
        <mxCell id="NbqthPl_TaQw0YLE8Lvm-2" value="redis" style="rounded=0;whiteSpace=wrap;html=1;" vertex="1" parent="1">
          <mxGeometry x="550" y="500" width="80" height="40" as="geometry" />
        </mxCell>
        <mxCell id="NbqthPl_TaQw0YLE8Lvm-3" value="OSS" style="rounded=0;whiteSpace=wrap;html=1;" vertex="1" parent="1">
          <mxGeometry x="670" y="500" width="90" height="40" as="geometry" />
        </mxCell>
        <mxCell id="NbqthPl_TaQw0YLE8Lvm-6" value="docker 容器化部署" style="rounded=0;whiteSpace=wrap;html=1;" vertex="1" parent="1">
          <mxGeometry x="155" y="215" width="60" height="210" as="geometry" />
        </mxCell>
        <mxCell id="NbqthPl_TaQw0YLE8Lvm-8" value="gitlab" style="rounded=0;whiteSpace=wrap;html=1;" vertex="1" parent="1">
          <mxGeometry x="880" y="290" width="60" height="40" as="geometry" />
        </mxCell>
        <mxCell id="NbqthPl_TaQw0YLE8Lvm-9" value="jekins" style="rounded=0;whiteSpace=wrap;html=1;" vertex="1" parent="1">
          <mxGeometry x="880" y="370" width="60" height="35" as="geometry" />
        </mxCell>
        <mxCell id="NbqthPl_TaQw0YLE8Lvm-10" value="elasticsearch" style="rounded=0;whiteSpace=wrap;html=1;" vertex="1" parent="1">
          <mxGeometry x="270" y="500" width="110" height="40" as="geometry" />
        </mxCell>
        <mxCell id="NbqthPl_TaQw0YLE8Lvm-11" value="异步任务 celery" style="rounded=0;whiteSpace=wrap;html=1;" vertex="1" parent="1">
          <mxGeometry x="295" y="400" width="85" height="40" as="geometry" />
        </mxCell>
        <mxCell id="NbqthPl_TaQw0YLE8Lvm-13" value="nginx" style="rounded=1;whiteSpace=wrap;html=1;arcSize=40;fontColor=#000000;fillColor=#ffffc0;strokeColor=#ff0000;" vertex="1" parent="1">
          <mxGeometry x="422.5" y="100" width="120" height="40" as="geometry" />
        </mxCell>
        <mxCell id="NbqthPl_TaQw0YLE8Lvm-15" value="web 前端" style="rounded=1;whiteSpace=wrap;html=1;arcSize=40;fontColor=#000000;fillColor=#ffffc0;strokeColor=#ff0000;" vertex="1" parent="1">
          <mxGeometry x="280" y="230" width="120" height="40" as="geometry" />
        </mxCell>
        <mxCell id="NbqthPl_TaQw0YLE8Lvm-38" style="edgeStyle=orthogonalEdgeStyle;rounded=0;orthogonalLoop=1;jettySize=auto;html=1;exitX=0.75;exitY=0;exitDx=0;exitDy=0;" edge="1" parent="1" source="NbqthPl_TaQw0YLE8Lvm-19">
          <mxGeometry relative="1" as="geometry">
            <mxPoint x="370" y="310" as="targetPoint" />
          </mxGeometry>
        </mxCell>
        <mxCell id="NbqthPl_TaQw0YLE8Lvm-19" value="web 后端" style="rounded=1;whiteSpace=wrap;html=1;arcSize=40;fontColor=#000000;fillColor=#ffffc0;strokeColor=#ff0000;" vertex="1" parent="1">
          <mxGeometry x="280" y="290" width="120" height="40" as="geometry" />
        </mxCell>
        <mxCell id="NbqthPl_TaQw0YLE8Lvm-21" value="存储层" style="html=1;" vertex="1" parent="1">
          <mxGeometry x="155" y="450" width="650" height="20" as="geometry" />
        </mxCell>
        <mxCell id="NbqthPl_TaQw0YLE8Lvm-22" value="服务层 负载均衡" style="html=1;" vertex="1" parent="1">
          <mxGeometry x="155" y="190" width="650" height="20" as="geometry" />
        </mxCell>
        <mxCell id="NbqthPl_TaQw0YLE8Lvm-27" value="" style="edgeStyle=orthogonalEdgeStyle;rounded=0;orthogonalLoop=1;jettySize=auto;html=1;" edge="1" parent="1" source="NbqthPl_TaQw0YLE8Lvm-24" target="NbqthPl_TaQw0YLE8Lvm-6">
          <mxGeometry relative="1" as="geometry" />
        </mxCell>
        <mxCell id="NbqthPl_TaQw0YLE8Lvm-24" value="企业微信" style="rounded=0;whiteSpace=wrap;html=1;" vertex="1" parent="1">
          <mxGeometry x="30" y="310" width="70" height="40" as="geometry" />
        </mxCell>
        <mxCell id="NbqthPl_TaQw0YLE8Lvm-25" value="消息推送&lt;br&gt;&lt;br&gt;三方登录" style="rounded=0;whiteSpace=wrap;html=1;" vertex="1" parent="1">
          <mxGeometry x="110" y="90" width="20" height="480" as="geometry" />
        </mxCell>
        <mxCell id="NbqthPl_TaQw0YLE8Lvm-26" value="自动化集成" style="rounded=0;whiteSpace=wrap;html=1;" vertex="1" parent="1">
          <mxGeometry x="820" y="90" width="20" height="470" as="geometry" />
        </mxCell>
        <mxCell id="NbqthPl_TaQw0YLE8Lvm-29" value="web 前端" style="rounded=1;whiteSpace=wrap;html=1;arcSize=40;fontColor=#000000;fillColor=#ffffc0;strokeColor=#ff0000;" vertex="1" parent="1">
          <mxGeometry x="440" y="230" width="120" height="40" as="geometry" />
        </mxCell>
        <mxCell id="NbqthPl_TaQw0YLE8Lvm-31" value="web 前端" style="rounded=1;whiteSpace=wrap;html=1;arcSize=40;fontColor=#000000;fillColor=#ffffc0;strokeColor=#ff0000;" vertex="1" parent="1">
          <mxGeometry x="615" y="230" width="120" height="40" as="geometry" />
        </mxCell>
        <mxCell id="NbqthPl_TaQw0YLE8Lvm-33" value="web 后端" style="rounded=1;whiteSpace=wrap;html=1;arcSize=40;fontColor=#000000;fillColor=#ffffc0;strokeColor=#ff0000;" vertex="1" parent="1">
          <mxGeometry x="440" y="290" width="120" height="40" as="geometry" />
        </mxCell>
        <mxCell id="NbqthPl_TaQw0YLE8Lvm-34" value="web 后端" style="rounded=1;whiteSpace=wrap;html=1;arcSize=40;fontColor=#000000;fillColor=#ffffc0;strokeColor=#ff0000;" vertex="1" parent="1">
          <mxGeometry x="615" y="290" width="120" height="40" as="geometry" />
        </mxCell>
        <mxCell id="NbqthPl_TaQw0YLE8Lvm-35" value="异步任务 celery" style="rounded=0;whiteSpace=wrap;html=1;" vertex="1" parent="1">
          <mxGeometry x="457.5" y="400" width="85" height="40" as="geometry" />
        </mxCell>
        <mxCell id="NbqthPl_TaQw0YLE8Lvm-36" value="异步任务 celery" style="rounded=0;whiteSpace=wrap;html=1;" vertex="1" parent="1">
          <mxGeometry x="632.5" y="400" width="85" height="40" as="geometry" />
        </mxCell>
        <mxCell id="NbqthPl_TaQw0YLE8Lvm-39" value="化学算法服务" style="rounded=1;whiteSpace=wrap;html=1;arcSize=40;fontColor=#000000;fillColor=#ffffc0;strokeColor=#ff0000;" vertex="1" parent="1">
          <mxGeometry x="280" y="350" width="120" height="40" as="geometry" />
        </mxCell>
        <mxCell id="NbqthPl_TaQw0YLE8Lvm-41" value="化学算法服务" style="rounded=1;whiteSpace=wrap;html=1;arcSize=40;fontColor=#000000;fillColor=#ffffc0;strokeColor=#ff0000;" vertex="1" parent="1">
          <mxGeometry x="615" y="350" width="120" height="40" as="geometry" />
        </mxCell>
        <mxCell id="NbqthPl_TaQw0YLE8Lvm-42" value="化学算法服务" style="rounded=1;whiteSpace=wrap;html=1;arcSize=40;fontColor=#000000;fillColor=#ffffc0;strokeColor=#ff0000;" vertex="1" parent="1">
          <mxGeometry x="440" y="350" width="120" height="40" as="geometry" />
        </mxCell>
      </root>
    </mxGraphModel>
  </diagram>
</mxfile>
